<svg
 fill="#FF0000" 
 version="1.1" 
 id="Capa_1" 
 xmlns="http://www.w3.org/2000/svg" 
 xmlns:xlink="http://www.w3.org/1999/xlink" 
 width="800px" 
 height="800px" 
 viewBox="0 0 188.279 188.28"
 stroke="#FF0000"
 stroke-width="3"
 xml:space="preserve">
<g>
	<path d="M186.27,89.384c-6.561-6.229-16.81-0.225-24.414,1.141c-19.393,3.485-38.58,12.003-57.195,18.401
		c-20.955,7.203-41.759,14.811-62.283,23.169c-12.98,5.286-25.343,11.685-37.949,17.736c-9.43,4.527-1.207,16.222,1.021,22.141
		c0.419,1.112,1.652,1.107,2.212,0.418c6.13,1.47,10.96-5.221,11.69-11.284c3.903,2.248,5.093,6.043,6.593,10.673
		c0.299,0.924,0.964,1.349,1.664,1.404c0.284,0.463,0.955,0.598,1.354,0.013c7.094-10.402,18.438-14.134,30.368-14.652
		c-2.596,6.574-2.296,14.813,6.125,16.284c0.994,0.174,1.764-0.228,2.208-0.843c6.199,1.239,12.199-3.617,14.184-9.563
		c1.789,0.851,3.592,1.67,5.367,2.562c4.104,2.06,4.656,5.16,6.124,9.146c0.889,2.415,3.761,2.139,4.569,0.081
		c5.97-6.93,15.121-10.416,24.377-11.179c-1.74,5.657,0.597,10.977,5.683,15.688c7.882,7.301,19.074,6.781,28.601,3.773
		c0.658-0.208,1.094-0.577,1.435-0.996c2.557,0.399,5-3.272,2.611-5.138c-21.005-16.416,16.202-55.397,24.409-72.014
		C187.009,102.323,190.521,93.42,186.27,89.384z M171.791,115.666c-5.694,9.142-12.07,17.796-17.283,27.24
		c-5.76,10.434-10.069,26.373-1.988,36.237c-9.432,0.855-32.934-0.664-22.067-15.895c1.453-2.037-0.5-4.898-2.795-4.871
		c-4.405,0.054-23.791,3.694-30.796,10.134c-2.964-5.22-10.224-7.518-15.631-10.353c-1.7-0.892-4.105,0.186-4.008,2.3
		c0.268,5.856-4.514,9.805-9.838,10.797c-0.099-0.099-0.175-0.207-0.299-0.296c-5.262-3.777-4.086-8.831-0.446-13.346
		c1.605-1.991,0.716-5.211-2.163-5.224c-11.488-0.047-29.034,3.048-35.059,14.295c-1.578-5.281-6.69-9.553-11.748-11.03
		c-1.699-0.496-2.995,1.111-2.687,2.687c0.951,4.867-2.5,10.548-7.394,11.235c-1.601-7.712-3.858-13.877,5.686-17.211
		c4.158-1.453,7.756-3.827,11.578-5.999c16.248-9.238,35.395-14.957,52.93-21.361c30.892-11.281,62.004-22.139,93.92-29.746
		C188.174,91.333,175.479,109.743,171.791,115.666z"/>
	<path d="M99.231,100.427c-0.031-1.334-0.006-2.667-0.058-4.002c-0.113-2.907-0.627-5.754-1.988-8.344
		c-3.216-6.122-10.827-4.338-16.846-2.77c0.657-5.09,1.098-10.263,1.17-15.389c0.011-0.794-0.392-1.569-0.996-2.097
		c8.983-1.816,16.061-15.549,11.838-23.547c-4.188-7.933-13.008-9.114-20.92-7.143c0.463-2.358,0.076-4.783-1.79-6.537
		c-1.741-1.636-3.718-2.346-5.745-2.446c2.2-4.984,1.621-10.471-4.632-13.57c-4.422-2.191-9.448-1.509-13.115,1.074
		c-1.047-4.308-3.567-8.358-6.914-11.032c-6.454-5.157-14.839-2.966-20.219,2.611c-4.951,5.131-6.013,23.289,1.538,26.9
		c-5.944,6.036-5.616,15.455,1.92,21.13c4.425,3.332,11.897,4.932,16.85,2.263c0.702,2.495,2.75,4.822,5.433,6.204
		c3.238,1.668,6.91,1.842,9.872,0.539c0.347,1.662,1.056,3.169,2.146,4.139c-4.575,4.101-2.428,14.001-1.09,20.132
		c-12.941,1.932-25.428,4.809-36.133,12.817c-8.885,6.646-2.617,26.209-0.47,34.742c0.335,1.332,2.063,0.879,2.212-0.299
		c0.729-5.796,0.42-11.518,0.108-17.337c-0.37-6.901-1.369-11.504,5.407-15.073c10.31-5.43,19.281-7.755,30.684-9.653
		c2.093-0.349,2.358-2.349,1.513-3.788c0.634-5.522-1.142-12.338,1.359-17.337c0.817-1.634,6.342-1.117,7.797-1.101
		c2.563,0.027,5.145,0.297,7.685,0.734c-0.229,4.628-0.853,9.226-0.954,13.856c-0.015,0.713,0.209,1.232,0.522,1.645
		c0.018,0.597,0.339,1.169,1.009,1.264c3.243,0.462,6.49,0.2,9.754,0.284c3.884,0.101,5.921,0.925,6.726,4.744
		c0.624,2.959-1.079,9.195,2.863,10.334c1.524,0.44,3.365-0.806,3.25-2.475C99.164,103.989,99.247,101.083,99.231,100.427z
		 M60.339,66.469c-1.904-1.006-2.356-3.466-1.747-5.585c0.321-0.522,0.565-1.127,0.795-1.747c0.013-0.018,0.02-0.041,0.033-0.059
		c0,0-0.004-0.002-0.006-0.003c0.066-0.182,0.168-0.327,0.226-0.517c0.733-2.432-2.68-3.712-3.977-1.677
		c-0.265,0.416-0.474,0.888-0.657,1.382c-1.602,2.748-5.073,2.717-7.87,1.406c-3.269-1.532-4.084-3.871-2.137-6.853
		c1.058-1.621-1.077-3.856-2.711-2.711c-1.046,0.733-1.803,1.552-2.327,2.416c-4.292,2.722-9.235,2.031-13.775-1.071
		c-2.199-1.502-4.165-4.128-4.515-6.818c-0.522-4.012,2.426-7.518,4.847-10.356c1.36-1.594-0.346-4.08-2.292-2.971
		c-0.251,0.143-0.473,0.308-0.712,0.461c-5.015-4.14-3.92-14.532-1.48-19.547c2.631-5.409,9.877-6.713,14.376-3.127
		c4.154,3.311,4.776,8.165,5.075,13.009c-0.226,0.755-0.404,1.536-0.478,2.362c-0.054,0.6,0.336,0.956,0.808,1.054
		c0.626,1.41,2.815,2.072,3.609,0.354c0.752-1.628,1.111-3.358,1.22-5.11c2.498-2.249,5.522-3.391,9.434-2.208
		c7.229,2.185,2.804,9.266-0.761,12.544c-2.159,1.986,0.704,5.779,3.156,4.09c1.949-1.343,3.848-2.369,6.274-1.831
		c3.027,0.67,1.577,3.862,0.354,6.102c-0.041,0.02-0.085,0.038-0.125,0.058c-0.483,0.244-0.653,0.763-0.6,1.262
		c-0.059,0.11-0.137,0.246-0.183,0.339c-1.119,2.265,1.454,4.012,3.325,2.565c0.744-0.575,1.417-1.344,2.017-2.193
		c5.598-0.608,11.798-0.754,15.961,3.101c3.734,3.457,2.134,8.706-0.184,12.35c-2.077,3.265-5.585,4.53-8.234,7.09
		c-0.751,0.726-0.82,1.772-0.44,2.613C71.64,65.664,65.153,64.918,60.339,66.469z"/>
</g>
</svg>